<svg width="15" height="14" viewBox="0 0 117 364" fill="none" xmlns="http://www.w3.org/2000/svg">
<path d="M58.5417 0V37.3196H58.3842C58.3054 37.3196 58.2267 37.3196 58.0692 37.3196C49.6443 37.4745 42.8729 44.2106 42.8729 52.4952H42.7154C42.7154 54.3535 43.0304 56.1343 43.6603 57.8377L8.14962 70.226C6.10245 64.7287 5.00012 58.7668 5.00012 52.4952C5.00012 23.6151 28.6214 0.23228 57.9118 0C57.9905 0 58.0692 0 58.148 0H58.5417V0Z" fill="#2196F3"/>
<path d="M108.54 35.3066L73.0293 47.6949C70.9822 41.733 65.313 37.3971 58.5416 37.3971H58.3841C58.3054 37.3971 58.2267 37.3971 58.0692 37.3971V0.0775146H58.3054C58.3842 0.0775146 58.4629 0.0775146 58.5416 0.0775146C81.6905 0.232368 101.375 14.866 108.54 35.3066Z" fill="#F44336"/>
<path d="M58.1479 105.3V67.9807H58.3054C58.3842 67.9807 58.4629 67.9807 58.6204 67.9807C67.0453 67.8258 73.8167 61.0897 73.8167 52.8051H73.9742C73.9742 50.9468 73.6593 49.166 73.0294 47.4626L108.54 35.0743C110.587 40.5716 111.689 46.5335 111.689 52.8051C111.689 81.6852 87.9895 105.068 58.7778 105.3C58.6991 105.3 58.6204 105.3 58.5416 105.3H58.1479V105.3Z" fill="#FFA000"/>
<path d="M8.14954 70.0712L43.6602 57.6829C45.7074 63.6448 51.3765 67.9807 58.1479 67.9807H58.3054C58.3841 67.9807 58.4629 67.9807 58.6203 67.9807V105.3H58.3841C58.3053 105.3 58.2266 105.3 58.1479 105.3C34.999 105.145 15.3147 90.4344 8.14954 70.0712Z" fill="#F44336"/>
<path d="M16.1808 53.4244C16.1808 76.1878 34.9991 94.6928 58.1479 94.6928C81.2967 94.6928 100.115 76.1878 100.115 53.4244H79.8795H16.1808Z" fill="url(#paint0_linear_402_10)"/>
<path d="M58.2664 248.428C57.9397 216.732 31.9288 191.237 -1.78242e-05 191.566L0.592125 249.022L58.2664 248.428Z" fill="#2196F3"/>
<path d="M58.0001 248.81C58.461 280.505 84.5797 305.889 116.507 305.425L115.671 247.971L58.0001 248.81V248.81Z" fill="#2196F3"/>
<path d="M59 248.647C59.254 216.83 85.1091 191.176 116.918 191.43L116.457 249.106L59 248.647Z" fill="#FFC107"/>
<path d="M58.4591 248.971C58.5741 280.789 33.0183 306.741 1.20867 306.856L1.00018 249.179L58.4591 248.971Z" fill="#FFC107"/>
<path d="M116.467 191.431C116.467 159.733 90.7203 133.971 58.7898 133.971V191.431H116.467Z" fill="#FFC107"/>
<path d="M1.00012 191.431C1.00012 159.733 26.7469 133.971 58.6774 133.971V191.431H1.00012Z" fill="#F44336"/>
<path d="M116.467 191.431C116.467 159.733 90.7203 133.971 58.7898 133.971V191.431H116.467Z" fill="#FFC107"/>
<path d="M1.00012 191.431C1.00012 159.733 26.7469 133.971 58.6774 133.971V191.431H1.00012Z" fill="#F44336"/>
<path d="M0.471112 305C0.211319 336.697 25.7461 362.668 57.6755 362.93L58.1465 305.473L0.471112 305Z" fill="#FFC107"/>
<path d="M115.934 305.946C115.674 337.643 89.7173 363.193 57.7879 362.931L58.2588 305.474L115.934 305.946Z" fill="#F44336"/>
<defs>
<linearGradient id="paint0_linear_402_10" x1="58.1335" y1="93.2419" x2="58.1335" y2="54.6881" gradientUnits="userSpaceOnUse">
<stop stop-opacity="0.25"/>
<stop offset="1" stop-opacity="0"/>
</linearGradient>
</defs>
</svg>
