<?xml version="1.0" standalone="no"?>
<!DOCTYPE svg PUBLIC "-//W3C//DTD SVG 20010904//EN"
 "http://www.w3.org/TR/2001/REC-SVG-20010904/DTD/svg10.dtd">
<svg version="1.0" xmlns="http://www.w3.org/2000/svg"
 width="512.000000pt" height="512.000000pt" viewBox="0 0 512.000000 512.000000"
 preserveAspectRatio="xMidYMid meet">
<metadata>
Created by potrace 1.14, written by Peter Selinger 2001-2017
</metadata>
<g transform="translate(0.000000,512.000000) scale(0.100000,-0.100000)"
fill="#000000" stroke="none">
<path d="M2520 5097 c-3 -2 -39 -8 -80 -11 -107 -10 -105 -21 3 -22 108 -1
353 -12 382 -18 12 -2 48 -7 80 -11 33 -4 69 -9 80 -11 11 -3 36 -7 55 -10 35
-5 159 -31 193 -40 9 -2 25 -6 35 -8 124 -29 334 -101 419 -144 45 -24 139
-97 199 -156 179 -179 279 -450 241 -656 -4 -25 -10 -61 -13 -79 -3 -19 -17
-67 -31 -105 -70 -195 -195 -386 -373 -569 l-66 -68 -74 20 c-63 17 -139 33
-265 56 -35 6 -98 16 -175 26 -283 36 -701 29 -920 -16 -14 -3 -34 -7 -45 -9
-72 -15 -163 -42 -243 -72 -88 -34 -93 -38 -90 -62 3 -30 -5 -28 263 -83 83
-16 157 -32 165 -34 8 -2 42 -10 75 -18 152 -37 278 -74 503 -149 l243 -82
-43 -26 c-76 -47 -190 -106 -328 -168 -498 -225 -1009 -325 -1465 -288 -80 6
-122 12 -230 32 -119 21 -312 85 -420 138 -67 33 -78 20 -41 -50 95 -182 290
-360 517 -471 91 -45 276 -113 350 -129 99 -20 237 -44 304 -50 102 -11 476
-11 580 -1 78 7 254 35 265 42 3 2 21 6 40 9 60 9 172 34 250 56 41 11 82 22
91 24 28 7 253 84 320 110 156 59 343 152 502 248 l127 77 88 -73 c48 -41 113
-99 146 -129 l58 -56 -38 -16 c-322 -137 -616 -245 -1389 -510 -839 -288
-1156 -403 -1400 -508 -310 -133 -449 -210 -519 -288 -55 -60 -50 -85 32 -156
108 -95 161 -132 397 -281 11 -7 70 -37 130 -68 108 -55 111 -56 175 -49 138
13 189 31 200 70 3 11 14 21 25 23 11 2 39 10 61 17 23 8 111 34 195 59 267
77 385 114 734 230 318 106 728 257 749 277 6 5 15 9 22 9 38 0 436 191 674
323 66 37 250 156 268 174 7 7 15 13 17 13 5 0 -2 -162 -10 -210 -12 -74 -61
-210 -107 -294 -50 -92 -104 -141 -288 -265 -215 -144 -363 -224 -567 -307
-68 -27 -245 -90 -283 -99 -3 -1 -30 -9 -60 -18 -30 -9 -70 -19 -89 -22 -19
-3 -37 -8 -41 -10 -3 -2 -29 -7 -56 -11 -27 -3 -52 -8 -55 -10 -3 -1 -28 -6
-55 -9 -27 -4 -60 -8 -74 -11 -160 -27 -490 -23 -668 7 -35 6 -65 9 -68 6 -12
-11 124 -73 186 -83 14 -3 32 -7 40 -10 102 -38 466 -42 680 -9 335 53 695
195 980 388 25 17 47 34 48 39 2 4 8 8 14 8 17 0 189 144 288 242 325 318 570
729 620 1038 6 36 12 74 14 85 2 11 21 58 43 105 70 148 94 295 96 583 1 158
-1 186 -16 215 -32 58 -144 91 -257 74 -30 -4 -32 -6 -27 -39 4 -21 25 -56 55
-91 51 -59 122 -155 122 -165 0 -7 -118 -97 -128 -97 -4 0 -26 28 -49 63 -71
106 -189 230 -295 309 -38 27 -68 54 -68 58 0 5 17 35 39 67 92 140 167 325
194 483 15 84 16 275 2 350 -34 177 -149 420 -264 554 -132 154 -197 212 -421
378 -64 48 -200 128 -305 181 -84 41 -313 137 -339 141 -6 1 -15 4 -21 8 -9 5
-66 19 -82 20 -5 0 -24 6 -43 14 -31 12 -126 31 -245 49 -52 8 -438 19 -445
12z"/>
<path d="M1568 3985 c-2 -2 -57 -6 -123 -10 -66 -3 -131 -8 -145 -10 -14 -2
-56 -6 -95 -10 -92 -8 -137 -15 -345 -50 -43 -8 -181 -45 -263 -71 -204 -65
-367 -176 -425 -291 -39 -76 -121 -341 -146 -472 -14 -73 -26 -168 -26 -210 0
-90 14 -113 83 -132 75 -21 267 -15 387 12 25 6 53 12 63 14 10 2 27 7 37 10
10 3 27 8 37 10 45 9 234 80 327 123 226 104 476 268 463 305 -6 17 -65 13
-177 -12 -145 -31 -404 -45 -540 -29 -36 5 -75 9 -87 10 -13 1 -19 5 -15 8 11
10 362 117 442 135 8 2 74 17 145 35 144 35 336 75 405 85 25 3 52 8 61 11 10
3 30 7 45 9 16 2 90 13 164 24 74 11 162 22 195 26 107 11 149 15 185 20 65 8
143 15 315 30 33 3 78 7 101 10 22 2 81 6 130 10 49 3 115 8 146 11 31 3 83 7
115 9 32 2 81 6 108 9 28 3 79 8 115 11 36 3 85 8 110 10 25 2 77 7 115 10
119 10 308 35 314 40 9 10 -15 39 -48 59 -87 51 -388 126 -641 161 -25 3 -72
10 -105 15 -33 5 -87 12 -120 15 -33 3 -71 7 -85 10 -14 2 -56 7 -95 10 -38 3
-86 8 -105 10 -35 5 -136 12 -280 21 -85 5 -738 13 -742 9z"/>
</g>
</svg>
